<?xml version="1.0" encoding="UTF-8" standalone="no"?>
<svg
   version="1.1"
   viewBox="0 0 1499 1674"
   preserveAspectRatio="xMidYMid"
   fill-rule="evenodd"
   id="svg123"
   sodipodi:docname="psi_white.svg"
   width="1499"
   height="1674"
   inkscape:version="1.1.1 (c3084ef, 2021-09-22)"
   xmlns:inkscape="http://www.inkscape.org/namespaces/inkscape"
   xmlns:sodipodi="http://sodipodi.sourceforge.net/DTD/sodipodi-0.dtd"
   xmlns="http://www.w3.org/2000/svg"
   xmlns:svg="http://www.w3.org/2000/svg">
  <defs
     id="defs127" />
  <sodipodi:namedview
     id="namedview125"
     pagecolor="#ffffff"
     bordercolor="#666666"
     borderopacity="1.0"
     inkscape:pageshadow="2"
     inkscape:pageopacity="0.0"
     inkscape:pagecheckerboard="0"
     showgrid="false"
     fit-margin-top="0"
     fit-margin-left="0"
     fit-margin-right="0"
     fit-margin-bottom="0"
     inkscape:zoom="0.38170213"
     inkscape:cx="661.51059"
     inkscape:cy="774.16388"
     inkscape:window-width="1312"
     inkscape:window-height="1081"
     inkscape:window-x="75"
     inkscape:window-y="43"
     inkscape:window-maximized="0"
     inkscape:current-layer="layer1" />
  <g
     visibility="visible"
     id="Default"
     transform="translate(-450,-444)">
    <desc
       id="desc85">Master slide</desc>
  </g>
  <g
     inkscape:groupmode="layer"
     id="layer1"
     inkscape:label="Image"
     style="opacity:0.01">
    <g
       visibility="visible"
       id="page1"
       transform="translate(-450,-444)"
       style="fill:#ffffff">
      <desc
         id="desc88">Slide</desc>
      <g
         id="g100"
         style="fill:#ffffff">
        <desc
           id="desc90">Drawing</desc>
        <g
           id="g98"
           style="fill:#ffffff">
          <g
             style="fill:#ffffff;stroke:none"
             id="g94">
            <path
               d="m 1266,1543 31,-10 29,-13 14,-7 13,-8 12,-9 12,-8 11,-10 11,-10 10,-10 10,-11 9,-12 8,-12 8,-13 7,-13 14,-30 12,-37 13,-43 11,-49 21,-118 17,-143 25,-214 11,-75 6,-29 5,-24 6,-21 6,-20 8,-19 10,-18 11,-17 11,-16 14,-14 14,-14 16,-12 16,-10 18,-9 20,-8 20,-6 22,-4 22,-2 24,-1 h 14 l 15,1 15,2 16,2 32,5 33,8 v 46 l -7,-1 h -6 -11 -6 l -7,1 -6,1 -6,2 -6,2 -6,3 -6,3 -5,4 -6,4 -5,5 -5,5 -5,5 -10,13 -10,15 -4,9 -5,10 -9,25 -8,31 -8,37 -16,91 -14,115 -13,105 -14,89 -14,73 -8,30 -7,26 -8,24 -10,24 -11,24 -12,23 -13,24 -15,23 -15,23 -17,23 -17,23 -18,21 -19,19 -19,18 -19,17 -20,15 -20,14 -20,12 -21,11 -22,11 -23,10 -25,9 -25,8 -26,8 -55,13 v 510 h -133 v -510 l -57,-14 -27,-8 -26,-9 -25,-10 -25,-10 -23,-12 -22,-12 -21,-13 -20,-14 -20,-16 -19,-17 -18,-18 -18,-20 -17,-21 -16,-22 -16,-23 -14,-23 -14,-23 -12,-23 -12,-24 -10,-23 -10,-23 -8,-24 -8,-26 -7,-31 -15,-75 -14,-93 -14,-112 -13,-108 -15,-85 -8,-35 -9,-30 -8,-24 -5,-9 -4,-9 -10,-14 -10,-13 -5,-6 -5,-5 -5,-4 -6,-4 -5,-4 -6,-3 -6,-3 -5,-2 -6,-2 -6,-1 -7,-1 h -6 -12 -6 l -7,1 v -46 l 33,-8 32,-5 16,-2 15,-2 15,-1 h 14 l 23,1 23,2 21,4 21,6 19,8 18,9 16,10 16,12 14,14 14,14 12,16 10,17 10,18 8,19 8,20 6,21 6,24 5,27 11,69 10,86 10,103 18,166 11,70 12,62 12,54 13,45 15,38 7,15 8,14 17,24 18,22 20,20 22,18 23,16 25,14 27,11 29,10 V 444 h 133 z"
               id="path92"
               style="fill:#ffffff" />
          </g>
          <g
             id="g96"
             style="fill:#ffffff" />
        </g>
      </g>
      <g
         id="g108"
         style="fill:#ffffff">
        <desc
           id="desc102">Drawing</desc>
        <g
           id="g106"
           style="fill:#ffffff">
          <g
             id="g104"
             style="fill:#ffffff" />
        </g>
      </g>
      <g
         id="g120"
         style="fill:#ffffff">
        <desc
           id="desc110">Drawing</desc>
        <g
           id="g118"
           style="fill:#ffffff">
          <g
             id="g116"
             style="fill:#ffffff">
            <g
               style="font-weight:400;font-size:635px;font-family:Arial;fill:#ffffff"
               id="g114">
              <g
                 style="fill:#ffffff;stroke:none"
                 id="g112" />
            </g>
          </g>
        </g>
      </g>
    </g>
  </g>
</svg>
